<svg width="755" height="166" viewBox="0 0 755 166" fill="none" xmlns="http://www.w3.org/2000/svg">
<path d="M754.453 40.1788C754.453 36.9276 752.678 33.8241 749.869 32.1985C749.869 32.1985 710.395 9.58791 696.054 1.16434C693.688 -0.313483 690.288 -0.609043 686.592 1.60769L639.873 28.504C638.69 29.0951 637.803 29.9818 637.212 31.0163C637.064 31.1641 637.064 31.3119 636.916 31.6074C636.768 31.903 636.62 32.0508 636.62 32.3463C636.62 32.4941 636.472 32.6419 636.472 32.6419C636.325 32.7897 636.324 33.0853 636.324 33.233C636.324 33.3808 636.177 33.5286 636.177 33.6764C636.177 33.8241 636.029 33.9719 636.029 34.1197C636.029 34.4153 636.029 34.563 636.029 34.8586C636.029 35.0064 636.029 35.1542 636.029 35.1542C636.029 35.4497 636.029 35.7453 636.029 36.1887C636.029 36.4842 636.177 36.7798 636.177 37.2231C636.324 37.8142 636.62 38.5532 636.916 39.1443L637.064 39.4399C637.655 40.4743 638.542 41.361 639.725 41.9522L647.117 46.2378L690.879 71.3608L754.009 107.715C754.009 107.715 754.157 107.715 754.305 107.567C754.453 107.42 754.453 107.124 754.453 107.124V40.1788Z" fill="#FFC979"/>
<path d="M754.305 107.863C754.453 107.715 754.453 107.42 754.453 107.42L754.305 40.1787C754.305 36.9275 752.531 33.8241 749.722 32.1985C749.722 32.1985 710.247 9.58784 695.906 1.16426C694.575 0.277571 692.801 -0.165771 690.879 0.129793V71.6563L754.009 108.011C754.009 108.011 754.157 107.863 754.305 107.863Z" fill="#FDAF62"/>
<path d="M699.602 138.454C699.454 138.454 699.159 138.454 699.011 138.454C698.715 138.454 698.567 138.454 698.271 138.454C698.124 138.454 697.976 138.454 697.976 138.454C697.68 138.454 697.532 138.306 697.384 138.306C697.237 138.306 697.089 138.158 696.941 138.158C696.793 138.158 696.645 138.01 696.497 138.01C696.202 137.863 696.054 137.863 695.906 137.715C695.758 137.715 695.758 137.567 695.61 137.567C695.315 137.419 695.019 137.271 694.871 136.976C694.575 136.828 694.428 136.533 694.132 136.385C693.688 135.941 693.245 135.35 692.949 134.759L692.801 134.464C692.21 133.429 691.914 132.247 691.914 130.917V121.607L691.471 71.9518L754.896 108.158L703.742 137.715C701.968 138.158 700.785 138.454 699.602 138.454Z" fill="#FF7172"/>
<path d="M79.5406 120.72L66.0867 139.488C65.9388 139.636 65.791 139.636 65.6431 139.636H54.7026C54.2591 139.636 54.1112 139.193 54.2591 138.749L72.444 113.479C72.5918 113.183 72.5918 112.887 72.444 112.592L56.0332 89.8335C55.7375 89.5379 56.0332 88.9468 56.4768 88.9468H67.2694C67.4173 88.9468 67.5651 89.0946 67.713 89.0946L79.5406 105.203L91.3681 89.0946C91.516 88.9468 91.6638 88.9468 91.8117 88.9468H102.604C103.048 88.9468 103.196 89.3901 103.048 89.8335L86.4893 112.74C86.3414 113.035 86.3414 113.331 86.4893 113.626L104.674 138.897C104.97 139.193 104.674 139.784 104.231 139.784H93.2901C93.1423 139.784 92.9944 139.636 92.8466 139.636L79.5406 120.72Z" fill="#001E47"/>
<path d="M135.278 88.0601C150.21 88.0601 161.447 99.2915 161.447 114.365C161.447 129.439 150.21 140.67 135.278 140.67C120.346 140.67 109.11 129.439 109.11 114.365C109.11 99.4393 120.346 88.0601 135.278 88.0601ZM135.278 131.065C144.592 131.065 151.245 123.676 151.245 114.365C151.245 105.055 144.74 97.6659 135.278 97.6659C125.964 97.6659 119.311 105.055 119.311 114.365C119.311 123.676 125.964 131.065 135.278 131.065Z" fill="#001E47"/>
<path d="M10.6449 116.583C10.3492 116.583 10.0535 116.878 10.0535 117.174C10.7927 125.45 17.7414 131.804 26.3164 131.804C33.5608 131.804 37.5526 128.405 40.5095 125.302C40.6574 125.154 40.9531 125.154 41.2487 125.302L47.1625 130.918C47.3104 131.066 47.4582 131.361 47.1625 131.657C43.3186 136.386 36.222 140.819 26.1686 140.819C11.3841 140.819 0 129.588 0 114.514C0 99.2925 10.3492 88.2088 24.6901 88.2088C38.7354 88.2088 48.9367 99.588 48.9367 114.514C48.9367 114.957 48.9367 115.696 48.7888 116.731H10.6449V116.583ZM10.9405 108.012H38.4397C36.9612 101.509 31.1953 97.0757 25.1336 97.0757C18.6285 97.0757 12.7147 101.361 10.9405 108.012Z" fill="#001E47"/>
<path d="M220.437 95.0058C218.071 92.6413 215.262 90.7202 212.01 89.3902C208.757 88.0601 205.061 87.3212 201.217 87.3212C197.521 87.3212 194.12 88.0601 191.016 89.6857C188.65 90.8679 186.432 92.4936 184.51 94.4147V90.2768C184.51 89.6857 184.067 89.2424 183.476 89.2424H175.344C174.753 89.2424 174.309 89.6857 174.309 90.2768V162.247C174.309 162.838 174.753 163.281 175.344 163.281H183.476C184.067 163.281 184.51 162.838 184.51 162.247V132.838C185.989 134.759 188.059 136.385 190.424 137.715C193.825 139.636 197.964 140.67 202.4 140.67C205.948 140.67 209.348 139.932 212.453 138.602C215.558 137.271 218.219 135.35 220.585 132.986C222.802 130.621 224.724 127.813 225.907 124.562C227.238 121.311 227.829 117.764 227.829 113.922C227.829 110.08 227.238 106.533 225.907 103.282C224.576 100.178 222.802 97.3704 220.437 95.0058ZM201.069 96.927C203.582 96.927 205.8 97.3704 207.87 98.2571C209.792 99.1438 211.566 100.326 213.045 101.952C214.523 103.429 215.558 105.351 216.297 107.272C217.036 109.341 217.48 111.557 217.48 114.07C217.48 116.582 217.036 118.799 216.297 120.868C215.558 122.937 214.375 124.71 213.045 126.336C211.566 127.813 209.94 129.144 207.87 130.03C205.948 130.917 203.582 131.36 201.069 131.36C198.556 131.36 196.338 130.917 194.268 130.03C192.346 129.144 190.572 127.961 189.094 126.336C187.615 124.858 186.58 122.937 185.841 120.868C185.102 118.799 184.658 116.582 184.658 114.07C184.658 111.557 185.102 109.341 185.841 107.272C186.58 105.203 187.763 103.429 189.094 101.952C190.572 100.474 192.198 99.1438 194.268 98.2571C196.338 97.3704 198.556 96.927 201.069 96.927Z" fill="#001E47"/>
<path d="M279.575 89.0946H271.295C270.704 89.0946 270.261 89.5379 270.261 90.1291V118.06C270.261 126.336 265.973 131.065 258.285 131.065C251.632 131.065 247.936 126.631 247.936 118.799V90.1291C247.936 89.5379 247.492 89.0946 246.901 89.0946H238.622C238.03 89.0946 237.587 89.5379 237.587 90.1291V120.277C237.735 133.134 244.683 140.818 256.067 140.818C261.686 140.818 266.86 138.602 270.261 134.464V138.602C270.261 139.193 270.704 139.636 271.295 139.636H279.575C280.166 139.636 280.61 139.193 280.61 138.602V89.9813C280.61 89.5379 280.166 89.0946 279.575 89.0946Z" fill="#001E47"/>
<path d="M340.191 95.3014C337.826 92.9369 335.017 91.0157 331.764 89.6857C328.511 88.3556 324.815 87.6167 320.971 87.6167C317.275 87.6167 313.875 88.3556 310.77 89.8335C308.404 91.0157 306.187 92.6413 304.265 94.5625V64.8583C304.265 64.2672 303.821 63.8238 303.23 63.8238H295.098C294.507 63.8238 294.064 64.2672 294.064 64.8583V138.602C294.064 139.193 294.507 139.636 295.098 139.636H303.23C303.821 139.636 304.265 139.193 304.265 138.602V132.838C305.743 134.759 307.813 136.385 310.179 137.715C313.579 139.636 317.719 140.67 322.154 140.67C325.702 140.67 328.955 139.932 332.06 138.602C335.164 137.271 337.826 135.35 340.191 132.986C342.409 130.621 344.183 127.813 345.514 124.562C346.844 121.311 347.436 117.764 347.436 114.07C347.436 110.227 346.844 106.681 345.514 103.577C344.183 100.474 342.409 97.6659 340.191 95.3014ZM337.086 114.218C337.086 116.582 336.643 118.947 335.904 121.015C335.164 123.084 334.129 124.858 332.651 126.336C331.173 127.813 329.546 129.143 327.476 129.882C325.554 130.769 323.189 131.212 320.823 131.212C318.458 131.212 316.092 130.769 314.17 129.882C312.248 128.996 310.474 127.813 308.996 126.336C307.517 124.858 306.483 122.937 305.743 121.015C305.004 118.947 304.561 116.73 304.561 114.218C304.561 111.853 305.004 109.488 305.743 107.42C306.483 105.351 307.517 103.577 308.996 102.099C310.474 100.622 312.101 99.2915 314.17 98.5526C316.092 97.6659 318.458 97.2226 320.823 97.2226C323.189 97.2226 325.554 97.6659 327.476 98.5526C329.398 99.4393 331.173 100.622 332.651 102.099C334.129 103.577 335.164 105.498 335.904 107.42C336.643 109.488 337.086 111.853 337.086 114.218Z" fill="#001E47"/>
<path d="M392.972 89.0946H384.544C383.953 89.0946 383.509 89.5379 383.509 90.1291V138.749C383.509 139.34 383.953 139.784 384.544 139.784H392.972C393.563 139.784 394.006 139.34 394.006 138.749V90.1291C394.006 89.5379 393.563 89.0946 392.972 89.0946Z" fill="#001E47"/>
<path d="M393.12 69.144H384.397C383.805 69.144 383.362 69.5873 383.362 70.1785V79.3409C383.362 79.9321 383.805 80.3754 384.397 80.3754H393.12C393.711 80.3754 394.155 79.9321 394.155 79.3409V70.1785C394.155 69.5873 393.711 69.144 393.12 69.144Z" fill="#001E47"/>
<path d="M429.342 108.306L429.046 108.158C423.576 106.681 418.845 105.351 418.845 101.508C418.845 98.257 422.097 96.0403 426.976 96.0403C432.742 96.0403 435.995 99.7349 437.769 102.838C438.064 103.282 438.656 103.429 439.099 103.282L445.605 99.7349C445.9 99.5871 446.048 99.4393 446.048 99.1437C446.196 98.8482 446.048 98.5526 445.9 98.4048C442.056 91.3113 435.403 87.469 427.124 87.469C417.958 87.469 408.643 92.198 408.643 102.691C408.643 113.331 417.514 115.548 425.35 117.469C431.116 118.947 436.29 120.129 436.29 124.71C436.29 128.996 432.594 131.804 426.976 131.804C418.697 131.804 415.74 125.744 414.705 123.232C414.557 122.937 414.409 122.789 414.114 122.641C413.818 122.493 413.522 122.493 413.374 122.641L406.573 125.597C406.13 125.744 405.834 126.336 405.982 126.779C408.791 135.203 417.366 140.818 427.272 140.818C436.882 140.818 446.492 135.646 446.492 124.267C446.492 113.183 437.03 110.375 429.342 108.306Z" fill="#001E47"/>
<path d="M481.679 88.0601C476.208 88.0601 471.182 90.2768 467.781 94.2669V70.7696C467.781 70.1785 467.338 69.7351 466.746 69.7351H458.319C457.728 69.7351 457.284 70.1785 457.284 70.7696V138.749C457.284 139.34 457.728 139.784 458.319 139.784H466.746C467.338 139.784 467.781 139.34 467.781 138.749V112.149C467.781 103.282 472.364 97.6659 479.757 97.6659C486.558 97.6659 489.81 101.656 489.81 110.08V138.749C489.81 139.34 490.254 139.784 490.845 139.784H499.272C499.864 139.784 500.307 139.34 500.307 138.749V108.454C500.159 98.5526 495.28 88.0601 481.679 88.0601Z" fill="#001E47"/>
<path d="M523.519 69.144H514.796C514.204 69.144 513.761 69.5873 513.761 70.1785V79.3409C513.761 79.9321 514.204 80.3754 514.796 80.3754H523.519C524.11 80.3754 524.554 79.9321 524.554 79.3409V70.1785C524.554 69.5873 524.11 69.144 523.519 69.144Z" fill="#001E47"/>
<path d="M523.371 89.0946H514.944C514.352 89.0946 513.909 89.5379 513.909 90.1291V138.749C513.909 139.34 514.352 139.784 514.944 139.784H523.371C523.962 139.784 524.406 139.34 524.406 138.749V90.1291C524.406 89.5379 523.962 89.0946 523.371 89.0946Z" fill="#001E47"/>
<path d="M563.585 88.0601C557.967 88.0601 552.94 90.2768 549.392 94.4147V90.1291C549.392 89.5379 548.948 89.0946 548.357 89.0946H539.93C539.338 89.0946 538.895 89.5379 538.895 90.1291V138.749C538.895 139.34 539.338 139.784 539.93 139.784H548.357C548.948 139.784 549.392 139.34 549.392 138.749V110.966C549.392 102.543 553.679 97.9615 561.367 97.9615C568.02 97.9615 571.716 102.395 571.716 110.227V138.749C571.716 139.34 572.16 139.784 572.751 139.784H581.178C581.77 139.784 582.213 139.34 582.213 138.749V108.75C581.918 95.7447 574.969 88.0601 563.585 88.0601Z" fill="#001E47"/>
<path d="M644.604 88.9468H636.472C635.881 88.9468 635.437 89.3902 635.437 89.9813V95.7448C634.994 95.1536 634.402 94.4147 633.811 93.8236C632.48 92.4936 631.002 91.4591 629.376 90.5724C627.749 89.6857 625.975 89.0946 624.349 88.6513C622.575 88.2079 620.801 88.0601 619.174 88.0601C615.183 88.0601 611.486 88.6512 608.234 89.8335C604.981 91.0157 602.024 92.7891 599.659 95.1537C597.293 97.3704 595.519 100.326 594.189 103.577C592.858 106.828 592.267 110.671 592.267 114.661C592.267 118.355 592.858 121.902 594.189 125.006C595.519 128.109 597.293 130.917 599.807 133.281C602.172 135.646 605.129 137.419 608.382 138.749C611.634 140.079 615.33 140.67 619.322 140.67C622.723 140.67 626.123 139.932 629.376 138.454C631.889 137.271 633.959 135.646 635.733 133.429V136.828C635.733 139.34 635.437 141.705 634.994 144.069C634.403 146.286 633.515 148.355 632.185 149.981C630.854 151.754 629.08 153.084 626.862 154.119C624.645 155.153 621.688 155.596 618.287 155.596C614.739 155.596 611.486 154.858 608.677 153.528C605.868 152.197 603.207 150.129 600.694 147.468C600.546 147.321 600.25 147.173 599.955 147.173C599.659 147.173 599.363 147.321 599.215 147.468L593.302 154.119C593.006 154.562 593.006 155.153 593.302 155.449C596.85 158.995 600.694 161.508 604.686 162.838C608.677 164.316 613.113 165.055 617.992 165.055C626.862 165.055 633.811 162.69 638.542 157.813C643.273 152.936 645.639 145.991 645.639 136.828V89.6857C645.491 89.3901 645.047 88.9468 644.604 88.9468ZM634.255 113.922C634.255 116.139 633.959 118.208 633.22 120.129C632.481 122.05 631.446 123.823 630.115 125.301C628.784 126.779 627.01 127.961 625.088 128.848C623.166 129.735 620.801 130.178 618.287 130.178C616.07 130.178 614.148 129.735 612.226 128.996C610.304 128.109 608.677 127.075 607.199 125.597C605.721 124.119 604.686 122.493 603.799 120.572C602.911 118.651 602.616 116.434 602.616 114.218C602.616 111.853 603.059 109.636 603.799 107.567C604.538 105.498 605.573 103.725 607.051 102.247C608.382 100.769 610.008 99.5871 611.93 98.7004C613.852 97.8137 616.07 97.3704 618.435 97.3704C620.801 97.3704 623.018 97.8137 624.94 98.5526C626.862 99.2915 628.637 100.474 629.967 101.952C631.298 103.429 632.481 105.203 633.22 107.124C633.811 109.193 634.255 111.41 634.255 113.922Z" fill="#001E47"/>
<path d="M367.247 63.6761H358.08C357.785 63.6761 357.637 63.9717 357.637 64.1194V139.193C357.637 139.488 357.933 139.636 358.08 139.636H367.247C367.542 139.636 367.69 139.34 367.69 139.193V64.1194C367.69 63.8239 367.542 63.6761 367.247 63.6761Z" fill="#001E47"/>
</svg>

